<svg xmlns="http://www.w3.org/2000/svg" viewBox="0 0 640 260" width="640" height="260" font-family="ui-monospace, Menlo, monospace" font-size="11" fill="#a09db4">
<rect width="100%" height="100%" fill="#03050f"/>
<text x="48" y="20" fill="#ece8e1" font-size="13">Memory capacity (higher holds input longer)</text>
<line x1="48" y1="216" x2="624" y2="216" stroke="#a09db4" stroke-width="0.5"/>
<rect x="120.0" y="207.6" width="23.0" height="8.4" fill="#8a22b8" fill-opacity="0.75"/><rect x="144.0" y="174.1" width="23.0" height="41.9" fill="#8a22b8" fill-opacity="0.75"/><rect x="168.0" y="119.7" width="23.0" height="96.3" fill="#8a22b8" fill-opacity="0.75"/><rect x="192.0" y="52.7" width="23.0" height="163.3" fill="#8a22b8" fill-opacity="0.75"/><rect x="216.0" y="128.1" width="23.0" height="87.9" fill="#8a22b8" fill-opacity="0.75"/><rect x="240.0" y="203.4" width="23.0" height="12.6" fill="#8a22b8" fill-opacity="0.75"/><rect x="264.0" y="211.8" width="23.0" height="4.2" fill="#8a22b8" fill-opacity="0.75"/><rect x="576.0" y="211.8" width="23.0" height="4.2" fill="#8a22b8" fill-opacity="0.75"/><rect x="72.0" y="107.2" width="23.0" height="108.8" fill="#3333ea" fill-opacity="0.75"/><rect x="96.0" y="36.0" width="23.0" height="180.0" fill="#3333ea" fill-opacity="0.75"/><rect x="120.0" y="111.3" width="23.0" height="104.7" fill="#3333ea" fill-opacity="0.75"/><rect x="144.0" y="195.1" width="23.0" height="20.9" fill="#3333ea" fill-opacity="0.75"/><rect x="336.0" y="211.8" width="23.0" height="4.2" fill="#3333ea" fill-opacity="0.75"/>
<line x1="79.5" y1="32" x2="79.5" y2="216" stroke="#c9ff2e" stroke-width="2"/>
<text x="74.2" y="236" text-anchor="middle">1.918</text><text x="336.0" y="236" text-anchor="middle">2.620</text><text x="597.8" y="236" text-anchor="middle">3.321</text><text x="624" y="20" text-anchor="end">memory capacity</text>
<rect x="48" y="246" width="10" height="10" fill="#8a22b8"/><text x="62" y="255">degree preserving</text><rect x="218" y="246" width="10" height="10" fill="#3333ea"/><text x="232" y="255">random (same density)</text><rect x="388" y="246" width="10" height="10" fill="#c9ff2e"/><text x="402" y="255">real wiring</text>
</svg>
